<?xml version="1.0" encoding="UTF-8" standalone="no"?>
<svg
   xmlns:sketch="http://www.bohemiancoding.com/sketch/ns"
   xmlns:dc="http://purl.org/dc/elements/1.1/"
   xmlns:cc="http://creativecommons.org/ns#"
   xmlns:rdf="http://www.w3.org/1999/02/22-rdf-syntax-ns#"
   xmlns:svg="http://www.w3.org/2000/svg"
   xmlns="http://www.w3.org/2000/svg"
   height="150.2142"
   width="349.66602"
   xml:space="preserve"
   enable-background="new -336 437 351 151"
   viewBox="-336 437 349.66602 150.2142"
   y="0px"
   x="0px"
   id="Layer_1"
   version="1.1"><metadata
   id="metadata50"><rdf:RDF><cc:Work
       rdf:about=""><dc:format>image/svg+xml</dc:format><dc:type
         rdf:resource="http://purl.org/dc/dcmitype/StillImage" /></cc:Work></rdf:RDF></metadata><defs
   id="defs48" />
<title
   id="title2">Group Copy 2</title>
<desc
   id="desc4">Created with Sketch.</desc>
<g
   transform="translate(-0.86698487,-0.29281474)"
   sketch:type="MSPage"
   id="Page-1">
	<g
   sketch:type="MSArtboardGroup"
   transform="translate(-144,-2506)"
   id="Home---Desktop-Copy-2">
		<g
   sketch:type="MSLayerGroup"
   transform="translate(97,2493)"
   id="Group">
			<g
   transform="translate(0,13)"
   id="Group-Copy-2">
				
					<linearGradient
   gradientTransform="matrix(348.2257,0,0,-87.3639,217017.59,89569.312)"
   y2="1019.5301"
   x2="-624.03589"
   y1="1019.4888"
   x1="-623.03589"
   gradientUnits="userSpaceOnUse"
   id="Oval-7-Copy-2_1_">
					<stop
   id="stop6"
   style="stop-color:#979797"
   offset="0" />
					<stop
   id="stop8"
   style="stop-color:#F1F1F1"
   offset="0.2293" />
					<stop
   id="stop10"
   style="stop-color:#FFFFFF"
   offset="0.5129" />
					<stop
   id="stop12"
   style="stop-color:#979797"
   offset="1" />
				</linearGradient>
				<path
   style="fill:none;stroke:url(#Oval-7-Copy-2_1_);stroke-width:1.46500003"
   d="M -100,528.7 C -4.1,510 67.6,482.5 60.3,467.2 c -7.4,-15.3 -91,-12.6 -186.9,6.1 -95.9,18.7 -167.6,46.2 -160.3,61.5 7.3,15.3 91,12.6 186.9,-6.1 z"
   id="Oval-7-Copy-2" />
				
					<linearGradient
   gradientTransform="matrix(348.2257,0,0,-87.3639,217017.59,89569.312)"
   y2="1019.5301"
   x2="-624.03589"
   y1="1019.4888"
   x1="-623.03589"
   gradientUnits="userSpaceOnUse"
   id="Oval-7-Copy-3_1_">
					<stop
   id="stop16"
   style="stop-color:#979797"
   offset="0" />
					<stop
   id="stop18"
   style="stop-color:#F1F1F1"
   offset="0.1977" />
					<stop
   id="stop20"
   style="stop-color:#FFFFFF"
   offset="0.567" />
					<stop
   id="stop22"
   style="stop-color:#979797"
   offset="1" />
				</linearGradient>
				<path
   style="fill:none;stroke:url(#Oval-7-Copy-3_1_);stroke-width:1.46500003"
   d="M -100,528.7 C -4.1,510 67.6,482.5 60.3,467.2 c -7.4,-15.3 -91,-12.6 -186.9,6.1 -95.9,18.7 -167.6,46.2 -160.3,61.5 7.3,15.3 91,12.6 186.9,-6.1 z"
   id="Oval-7-Copy-3" />
				<path
   style="fill:#e46e2e"
   d="m -107,555.9 c -24.6,0 -46,-8.8 -57.2,-21.9 8.4,23.4 30.9,40.2 57.2,40.2 26.3,0 48.7,-16.8 57.2,-40.2 -11.2,13.1 -32.6,21.9 -57.2,21.9"
   id="Fill-9" />
				<path
   style="fill:#e46e2e"
   d="m -107.4,470.6 c 24.6,0 46,8.8 57.2,21.9 -8.4,-23.4 -30.9,-40.2 -57.2,-40.2 -26.3,0 -48.7,16.8 -57.2,40.2 11.2,-13.1 32.6,-21.9 57.2,-21.9"
   id="Fill-10" />
				<path
   style="fill:#767474"
   d="m -150.1,587.5 c -5.3,0.2 -9.7,-3.9 -10,-9.1 -0.2,-5.3 3.9,-9.7 9.1,-10 5.3,-0.2 9.7,3.9 10,9.1 0.2,5.3 -3.9,9.8 -9.1,10 z"
   id="Fill-11" />
				<path
   style="fill:#767474"
   d="m -157.5,463 c -3.3,0.1 -6.1,-2.4 -6.2,-5.7 -0.1,-3.3 2.4,-6.1 5.7,-6.2 3.3,-0.1 6.1,2.4 6.2,5.7 0.1,3.3 -2.4,6 -5.7,6.2 z"
   id="Fill-12" />
				<path
   style="fill:#767474"
   d="m -62.6,455.9 c -5.1,0.2 -9.4,-3.8 -9.7,-8.9 -0.2,-5.1 3.8,-9.5 8.9,-9.7 5.1,-0.2 9.4,3.8 9.7,8.9 0.2,5.1 -3.8,9.5 -8.9,9.7 z"
   id="Fill-8" />
				<g
   transform="translate(0,52)"
   id="Group-Copy-_x2B_-hub">
					<g
   transform="translate(0.297974,4.567815)"
   id="Group-Copy">
						<path
   style="fill:#313940"
   d="m -218.3,464.2 c 0,5.5 -0.4,7.3 -1.6,8.6 -1,1.1 -2.7,1.6 -4.6,1.8 l 0.4,3.3 c 2.2,0 5.3,-0.8 7.2,-2.6 2.1,-2.1 2.8,-5 2.8,-9.4 V 445 h -4.2 v 19.2"
   id="Fill-1" />
						<path
   style="fill:#313940"
   d="m -186.9,461.7 c 0,2.4 0,4.5 0.2,6.3 h -3.7 l -0.2,-3.8 h -0.1 c -1.1,1.9 -3.5,4.3 -7.7,4.3 -3.6,0 -8,-2 -8,-10.1 V 445 h 4.2 v 12.7 c 0,4.4 1.3,7.3 5.2,7.3 2.8,0 4.8,-1.9 5.5,-3.8 0.2,-0.6 0.4,-1.4 0.4,-2.1 V 445 h 4.2 v 16.7"
   id="Fill-2" />
						<path
   style="fill:#313940"
   d="m -178.9,452.5 c 0,-2.9 -0.1,-5.3 -0.2,-7.5 h 3.8 l 0.2,3.9 h 0.1 c 1.7,-2.8 4.4,-4.5 8.2,-4.5 5.6,0 9.8,4.7 9.8,11.7 0,8.3 -5.1,12.3 -10.5,12.3 -3.1,0 -5.7,-1.3 -7.1,-3.6 h -0.1 v 12.5 h -4.2 z m 4.1,6.1 c 0,0.6 0.1,1.2 0.2,1.7 0.8,2.9 3.3,4.9 6.3,4.9 4.4,0 7,-3.6 7,-8.9 0,-4.6 -2.4,-8.5 -6.9,-8.5 -2.9,0 -5.5,2 -6.4,5.2 -0.1,0.5 -0.3,1.1 -0.3,1.7 v 3.9 z"
   id="Fill-3" />
						<path
   style="fill:#313940"
   d="m -149.5,445 5.1,13.6 c 0.5,1.5 1.1,3.3 1.5,4.7 h 0.1 c 0.4,-1.4 0.9,-3.1 1.5,-4.8 l 4.6,-13.5 h 4.4 l -6.3,16.4 c -3,7.9 -5.1,11.9 -7.9,14.4 -2.1,1.8 -4.1,2.5 -5.2,2.7 l -1.1,-3.5 c 1.1,-0.3 2.4,-1 3.7,-2 1.1,-0.9 2.6,-2.5 3.5,-4.7 0.2,-0.4 0.3,-0.8 0.3,-1 0,-0.2 -0.1,-0.6 -0.3,-1.1 l -8.6,-21.2 h 4.7"
   id="Fill-4" />
						<path
   style="fill:#313940"
   d="m -121.3,438.4 v 6.6 h 6 v 3.2 h -6 v 12.4 c 0,2.8 0.8,4.5 3.2,4.5 1.1,0 1.9,-0.1 2.4,-0.3 l 0.2,3.1 c -0.8,0.3 -2.1,0.6 -3.7,0.6 -2,0 -3.5,-0.6 -4.5,-1.8 -1.2,-1.2 -1.6,-3.3 -1.6,-6 v -12.5 h -3.6 V 445 h 3.6 v -5.5 l 4,-1.1"
   id="Fill-5" />
						<path
   style="fill:#313940"
   d="m -107.5,457.3 c 0.1,5.7 3.7,8 7.9,8 3,0 4.8,-0.5 6.4,-1.2 l 0.7,3 c -1.5,0.7 -4,1.4 -7.7,1.4 -7.1,0 -11.4,-4.7 -11.4,-11.6 0,-6.9 4.1,-12.4 10.9,-12.4 7.6,0 9.6,6.6 9.6,10.8 0,0.9 -0.1,1.5 -0.1,1.9 h -16.3 z m 12.3,-3 c 0,-2.7 -1.1,-6.8 -5.8,-6.8 -4.3,0 -6.1,3.9 -6.5,6.8 z"
   id="Fill-6" />
						<path
   style="fill:#313940"
   d="m -84.9,452.2 c 0,-2.7 0,-5 -0.2,-7.2 h 3.7 l 0.1,4.5 h 0.2 c 1.1,-3.1 3.6,-5 6.4,-5 0.5,0 0.8,0 1.2,0.1 v 3.9 c -0.4,-0.1 -0.9,-0.1 -1.4,-0.1 -3,0 -5.1,2.2 -5.6,5.4 -0.1,0.6 -0.2,1.2 -0.2,1.9 V 468 h -4.2 v -15.8"
   id="Fill-7" />
					</g>
					<path
   style="fill:#999999"
   d="m -65.6,472.5 h 4.1 v -13.7 c 0,-0.8 0,-1.4 0.3,-2 0.7,-2.2 2.9,-4.1 5.5,-4.1 3.9,0 5.2,3.1 5.2,6.7 v 13 h 4.1 v -13.5 c 0,-7.8 -4.9,-9.7 -7.9,-9.7 -1.5,0 -3,0.5 -4.2,1.2 -1.3,0.7 -2.3,1.7 -2.9,2.9 h -0.1 v -14.1 h -4.1 z m 44.9,-22.6 h -4.1 v 13.9 c 0,0.7 -0.1,1.5 -0.4,2.1 -0.7,1.8 -2.7,3.7 -5.4,3.7 -3.7,0 -5.1,-2.9 -5.1,-7.2 v -12.5 h -4.1 v 13.2 c 0,7.9 4.3,9.9 7.8,9.9 4,0 6.4,-2.4 7.5,-4.2 h 0.1 l 0.2,3.7 h 3.6 c -0.1,-1.8 -0.2,-3.8 -0.2,-6.2 v -16.4 z m 10.2,22.6 0.2,-3.7 h 0.1 c 1.7,3 4.3,4.3 7.6,4.3 5.1,0 10.1,-4 10.1,-12.1 0,-6.9 -3.9,-11.5 -9.5,-11.5 -3.6,0 -6.3,1.6 -7.7,4.2 h -0.1 v -14.2 h -4.1 v 27.4 c 0,2 -0.1,4.3 -0.2,5.8 h 3.6 z m 0.7,-13.1 c 0,-0.7 0.1,-1.2 0.2,-1.7 0.8,-3.1 3.5,-5.1 6.3,-5.1 4.4,0 6.7,3.9 6.7,8.4 0,5.2 -2.6,8.7 -6.9,8.7 -3,0 -5.4,-2 -6.2,-4.8 -0.1,-0.5 -0.2,-1 -0.2,-1.5 v -4 z"
   id="hub" />
				</g>
			</g>
		</g>
	</g>
</g>
</svg>
